# xmcd
#
# Track frame offsets: 
#        150
#        17706
#        28190
#        41503
#        52841
#        65249
#        82774
#        94690
#        115129
#        127215
#        137595
#        152292
#        168567
#        186153
#        198277
#        210443
#        220093
#        232801
#        245881
#        260560
#        269885
#        280992
#        299914
#        318813
#
# Disc length: 4435 seconds
#
# Revision: 0
# Processed by: cddbd v1.5.2PL0 Copyright (c) Steve Scherf et al.
# Submitted via: ExactAudioCopyFreeDBPlugin 1.0
#
DISCID=67115118
DTITLE=Various Artist - 48 Super Star Original Hits Disc 1
DYEAR=2003
DGENRE=Pop
TTITLE0=The Carpenters - Yesterday Once More
TTITLE1=Everly Brothers - All I Have To Do Is Dream
TTITLE2=Patti Page - The Tennessee Waltz
TTITLE3=The Cascades - Rhythm Of The Rain
TTITLE4=The Nolans - The Way We Were
TTITLE5=The Bee Gees - In The Morning
TTITLE6=The Platters - Smoke Gets In Your Eyes
TTITLE7=Paul Anka - My Way
TTITLE8=Brian Hyland - Sealed With A Kiss
TTITLE9=Neil Sedaka - Oh! Carol
TTITLE10=The Tremeloes - Silence Is Golden
TTITLE11=The Righteous Brothers - Unchained Melody
TTITLE12=Percy Sledge - When A Man Loves A Woman
TTITLE13=The Drifters - Under The Boardwalk
TTITLE14=Pat Boone - April Love
TTITLE15=Johnny Tillotson - Without You
TTITLE16=The Archies - Sugar Sugar
TTITLE17=Peter, Paul and Mary - Lemon Tree
TTITLE18=Andy Williams - The Exodus Song
TTITLE19=The Searchers - Love Potion No 9
TTITLE20=Paul and Paula - Hey Paula
TTITLE21=Peaches and Herb - Reunited
TTITLE22=Petula Clark - Kiss Me Goodbye
TTITLE23=Simon and Garfunkel - The Sounds Of Silence (Reprise)
EXTD=
EXTT0=
EXTT1=
EXTT2=
EXTT3=
EXTT4=
EXTT5=
EXTT6=
EXTT7=
EXTT8=
EXTT9=
EXTT10=
EXTT11=
EXTT12=
EXTT13=
EXTT14=
EXTT15=
EXTT16=
EXTT17=
EXTT18=
EXTT19=
EXTT20=
EXTT21=
EXTT22=
EXTT23=
PLAYORDER=
